<svg xmlns="http://www.w3.org/2000/svg" viewBox="0 0 862.85 674.29"><defs><style>.cls-1{fill:#00ff94;}</style></defs><g id="Capa_2" data-name="Capa 2"><g id="Capa_1-2" data-name="Capa 1"><path class="cls-1" d="M359.67,672.29c-63.09,0-121.84-15.45-174.64-45.93C137.9,599.14,98.57,561.6,68.15,514.77c-29.4-45.26-49.33-97.29-59.22-154.65S-.32,242.89,10.82,182.21C22.28,119.78,44.43,59.16,76.65,2H845.92c33.32,127.79,10.45,273.7-62.82,400.61-47.5,82.27-113,151-189.27,198.69C519.54,647.75,438.57,672.29,359.67,672.29Z"/><path d="M844.37,4c32.62,126.92,9.72,271.64-63,397.61-47.34,82-112.56,150.45-188.6,198-74,46.24-154.57,70.68-233.1,70.68a356.91,356.91,0,0,1-89.44-11.21A338.39,338.39,0,0,1,186,624.63c-46.86-27.06-85.95-64.39-116.2-111-29.26-45-49.08-96.81-58.92-153.9S1.69,243,12.79,182.57C24.14,120.73,46,60.66,77.82,4H844.37m3.09-4h-772C-58,235.74-9.93,516.11,184,628.09c54.32,31.36,114.33,46.2,175.64,46.2,159,0,326.55-99.89,425.16-270.68C861.42,271,880.16,123.67,847.46,0Z"/></g></g></svg>