<svg xmlns="http://www.w3.org/2000/svg" viewBox="0 0 989.02 710"><defs><style>.cls-1{fill:#db00ff;}</style></defs><g id="Capa_2" data-name="Capa 2"><g id="Capa_1-2" data-name="Capa 1"><path class="cls-1" d="M19.15,708c-38.23-134.56-12-288.26,72-421.92,54.46-86.65,129.51-159,217-209.28C393.35,27.87,486.24,2,576.76,2c72.39,0,139.81,16.29,200.38,48.42A382.34,382.34,0,0,1,901,154.16c32.23,41.51,55.86,89.38,70.23,142.27,17.5,64.38,20.57,132.65,9.13,202.91C968.55,571.68,942,641.87,901.38,708Z"/><path d="M576.8,0V4A443.75,443.75,0,0,1,679.52,15.84a408,408,0,0,1,96.69,36.34A380.39,380.39,0,0,1,899.38,155.39C931.44,196.69,955,244.32,969.26,297a455.44,455.44,0,0,1,15.26,98.46A503.11,503.11,0,0,1,978.35,499a551.24,551.24,0,0,1-28.26,105.32A600.29,600.29,0,0,1,900.26,706H20.66C-16.82,572.33,9.41,419.86,92.82,287.15,147.1,200.78,221.9,128.64,309.14,78.54,394,29.78,486.58,4,576.76,4l0-4m0,0C394.53,0,202.46,105.18,89.43,285,1.64,424.7-19.84,579.78,17.64,710H902.5c153-248.22,97.9-543.44-124.42-661.35C715.82,15.63,647,0,576.76,0Z"/></g></g></svg>